HIERARCHY
ROOT root
{
	OFFSET 0.000000 0.000000 0.000000
	CHANNELS 6 Xposition Yposition Zposition Zrotation Yrotation Xrotation
	JOINT lhip
	{
		OFFSET 0.058581 -0.082280 -0.017664
		CHANNELS 3 Zrotation Yrotation Xrotation
		JOINT lknee
		{
			OFFSET 0.043451 -0.386469 0.008037
			CHANNELS 3 Zrotation Yrotation Xrotation
			JOINT lankle
			{
				OFFSET -0.014790 -0.426874 -0.037428
				CHANNELS 3 Zrotation Yrotation Xrotation
				JOINT ltoe
				{
					OFFSET 0.041054 -0.060286 0.122042
					CHANNELS 3 Zrotation Yrotation Xrotation
					End Site
					{
						OFFSET 0.000000 0.000000 0.000000
					}
				}
			}
		}
	}
	JOINT rhip
	{
		OFFSET -0.060310 -0.090513 -0.013543
		CHANNELS 3 Zrotation Yrotation Xrotation
		JOINT rknee
		{
			OFFSET -0.043257 -0.383688 -0.004843
			CHANNELS 3 Zrotation Yrotation Xrotation
			JOINT rankle
			{
				OFFSET 0.019056 -0.420046 -0.034562
				CHANNELS 3 Zrotation Yrotation Xrotation
				JOINT rtoe
				{
					OFFSET -0.034840 -0.062106 0.130323
					CHANNELS 3 Zrotation Yrotation Xrotation
					End Site
					{
						OFFSET 0.000000 0.000000 0.000000
					}
				}
			}
		}
	}
	JOINT lowerback
	{
		OFFSET 0.004439 0.124404 -0.038385
		CHANNELS 3 Zrotation Yrotation Xrotation
		JOINT upperback
		{
			OFFSET 0.004488 0.137956 0.026820
			CHANNELS 3 Zrotation Yrotation Xrotation
			JOINT chest
			{
				OFFSET -0.002265 0.056032 0.002855
				CHANNELS 3 Zrotation Yrotation Xrotation
				JOINT lowerneck
				{
					OFFSET -0.013390 0.211636 -0.033468
					CHANNELS 3 Zrotation Yrotation Xrotation
					JOINT upperneck
					{
						OFFSET 0.010113 0.088937 0.050410
						CHANNELS 3 Zrotation Yrotation Xrotation
						End Site
						{
							OFFSET 0.000000 0.000000 0.000000
						}
					}
				}
				JOINT lclavicle
				{
					OFFSET 0.071702 0.114000 -0.018898
					CHANNELS 3 Zrotation Yrotation Xrotation
					JOINT lshoulder
					{
						OFFSET 0.122921 0.045205 -0.019046
						CHANNELS 3 Zrotation Yrotation Xrotation
						JOINT lelbow
						{
							OFFSET 0.255332 -0.015649 -0.022946
							CHANNELS 3 Zrotation Yrotation Xrotation
							JOINT lwrist
							{
								OFFSET 0.265709 0.012698 -0.007375
								CHANNELS 3 Zrotation Yrotation Xrotation
								End Site
								{
									OFFSET 0.000000 0.000000 0.000000
								}
							}
						}
					}
				}
				JOINT rclavicle
				{
					OFFSET -0.082954 0.112472 -0.023707
					CHANNELS 3 Zrotation Yrotation Xrotation
					JOINT rshoulder
					{
						OFFSET -0.113228 0.046853 -0.008472
						CHANNELS 3 Zrotation Yrotation Xrotation
						JOINT relbow
						{
							OFFSET -0.260127 -0.014369 -0.031269
							CHANNELS 3 Zrotation Yrotation Xrotation
							JOINT rwrist
							{
								OFFSET -0.269108 0.006794 -0.006027
								CHANNELS 3 Zrotation Yrotation Xrotation
								End Site
								{
									OFFSET 0.000000 0.000000 0.000000
								}
							}
						}
					}
				}
			}
		}
	}
}
MOTION
Frames: 5
Frame Time: 0.033333
1.194472 0.159601 0.996753 -87.791013 2.858564 85.928604 0.499900 -1.228727 3.336840 -3.938691 -18.557427 5.304392 6.560819 7.640284 -14.791527 0.000000 -0.000000 0.000000 3.772023 2.524521 -6.872280 1.929856 -0.364276 22.462108 3.302995 -6.898023 -15.539734 0.000000 -0.000000 0.000000 -1.929456 -0.279130 13.245950 2.597464 -1.581771 4.615887 0.519396 -2.614690 6.900464 4.093454 -1.615518 15.645956 -0.415127 -4.242174 13.035319 -23.608742 9.109517 4.453604 -58.861015 -7.874240 7.200341 12.024223 -37.183775 2.638634 -2.333974 0.064625 -11.087027 22.792278 -6.522221 1.404794 63.079209 0.372977 10.676067 -17.798084 31.933530 -6.241542 6.436167 -0.469596 -9.061977 
1.192638 0.158016 0.996442 -87.329276 2.787802 85.845041 0.446024 -0.975069 3.662397 -4.017173 -18.990160 5.041319 6.393409 7.387628 -14.830734 0.000000 -0.000000 0.000000 3.862942 2.236499 -6.871559 1.746754 -0.397996 23.652659 3.279344 -7.055712 -15.815119 0.000000 -0.000000 0.000000 -2.001496 -0.542727 12.955578 2.576135 -1.702145 4.416923 0.416572 -2.771709 6.851429 4.002198 -1.649143 16.211028 -0.665066 -4.187733 13.313386 -23.559019 9.193910 4.571908 -58.642129 -8.152075 6.997652 12.508498 -37.040563 2.474479 -2.283471 0.015541 -10.962833 22.950997 -6.572942 1.496046 63.395029 0.048600 10.913428 -17.229945 31.112952 -5.084351 6.576804 -0.503303 -8.304832 
1.188974 0.156081 0.995902 -86.564429 2.594594 85.884062 0.160790 -1.075596 4.009999 -3.932427 -19.206404 4.682710 6.517218 6.987520 -14.748679 0.000000 -0.000000 0.000000 3.578964 1.261424 -5.801699 2.086577 -0.069382 22.476846 2.818967 -6.391900 -15.051279 0.000000 -0.000000 0.000000 -1.877825 -0.241212 11.850204 2.558811 -2.365564 4.739951 0.336555 -2.986328 6.984999 3.763646 -2.071626 16.596809 -0.572088 -4.335096 13.231024 -23.591019 9.186952 4.638830 -58.665569 -8.434553 6.779799 12.901551 -36.683834 2.121355 -2.468763 0.336054 -10.955240 22.966342 -6.835517 1.660260 63.643126 -0.194153 10.887757 -16.831415 30.719370 -4.175373 6.935031 -0.670366 -7.873947 
1.186620 0.155423 0.995576 -85.984119 2.596013 86.069911 0.206893 -1.408281 3.814944 -4.065975 -19.164687 4.869338 6.430761 6.775986 -14.843193 0.000000 -0.000000 0.000000 3.519964 0.795654 -4.754550 2.232310 -0.137915 20.525727 2.576812 -6.612029 -14.940507 0.000000 -0.000000 0.000000 -1.767488 -0.081739 11.122758 2.547869 -2.603889 4.498436 0.401243 -3.052867 7.194417 3.624346 -2.021664 16.345919 -0.423672 -4.184491 13.077085 -23.586874 9.523097 4.613635 -58.864033 -8.572063 6.723017 13.223018 -36.845767 1.749156 -2.012393 0.289395 -11.580386 22.826628 -7.188460 1.757209 64.008086 -0.537879 10.844353 -16.689736 30.305058 -3.953648 6.936624 -0.657109 -8.270987 
1.185488 0.155643 0.995919 -86.014989 2.668340 86.199843 0.303239 -1.399919 3.645236 -4.114421 -19.117927 5.063111 6.349756 6.764856 -14.943888 0.000000 -0.000000 0.000000 3.527908 0.252960 -4.011959 2.410865 0.016367 18.905235 2.370692 -6.364039 -14.037882 0.000000 -0.000000 0.000000 -1.764353 0.145348 11.179047 2.615022 -2.326368 3.968920 0.626973 -3.059889 6.859716 3.579202 -2.402077 16.318243 -0.520796 -4.260303 13.247325 -23.782024 9.992363 4.458154 -58.797792 -8.439553 6.609951 12.888328 -36.986882 1.955312 -1.980917 0.115529 -11.914813 22.956657 -7.461413 1.749303 63.687678 -0.749791 10.784892 -16.314564 29.623793 -3.712442 6.850170 -0.564483 -8.050194 
